if (_typeface_js && _typeface_js.loadFace) _typeface_js.loadFace({"glyphs":{"0":{"ha":854,"x_min":0,"x_max":0,"o":"m 415 1101 b 808 533 772 1094 808 778 b 429 10 808 265 681 10 b 50 528 304 10 50 158 b 415 1101 50 925 197 1106 m 428 1003 b 147 525 189 1003 147 717 b 418 111 147 360 257 111 b 710 546 671 111 710 419 b 428 1003 710 869 601 1003 "},"1":{"ha":854,"x_min":0,"x_max":0,"o":"m 569 114 b 515 0 568 0 578 -7 b 471 844 450 0 471 -69 b 472 953 471 901 468 869 b 176 713 310 826 357 863 l 122 779 l 118 790 b 483 1081 410 1036 451 1079 b 578 903 576 1085 578 1096 "},"2":{"ha":854,"x_min":0,"x_max":0,"o":"m 479 1 b 169 1 375 1 274 1 b 132 32 135 1 132 21 b 554 815 132 117 554 547 b 415 981 554 889 508 981 b 118 822 300 981 144 833 b 75 883 107 818 82 871 b 414 1076 65 900 229 1076 b 661 821 525 1076 661 950 b 285 106 661 571 336 207 b 654 101 299 93 621 101 b 763 96 754 101 740 99 l 740 0 "},"3":{"ha":854,"x_min":0,"x_max":0,"o":"m 674 265 b 428 6 679 136 574 22 b 274 -3 374 0 328 -4 b 154 89 154 0 154 0 b 308 89 154 119 296 89 b 561 319 489 89 599 197 b 276 535 501 513 276 460 b 535 831 276 579 554 588 b 271 951 522 994 300 960 b 156 974 229 939 189 867 b 319 1069 140 1024 286 1067 b 636 831 519 1090 622 964 b 465 546 657 621 483 561 b 674 265 610 531 668 378 "},"4":{"ha":854,"x_min":0,"x_max":0,"o":"m 472 464 b 532 774 499 772 483 774 b 590 728 589 774 590 761 b 576 486 590 693 574 522 b 574 463 576 479 578 469 b 760 432 746 463 760 481 b 753 385 760 418 760 397 b 576 364 751 364 735 365 b 572 310 569 350 572 325 b 563 17 572 68 572 47 b 494 6 549 0 513 10 b 471 232 457 7 465 -26 b 469 364 472 268 476 328 l 453 365 b 138 358 353 365 169 358 b 81 414 88 358 81 393 b 415 1053 81 453 167 597 b 518 1047 439 1096 540 1074 b 207 479 515 1043 217 522 b 408 464 201 451 233 458 "},"5":{"ha":854,"x_min":0,"x_max":0,"o":"m 608 1049 b 603 964 604 1021 614 1003 b 310 963 506 964 408 964 b 225 719 210 961 236 954 b 279 603 219 613 217 610 b 617 278 606 581 617 408 b 260 -6 617 86 447 -1 b 94 67 115 -8 94 -8 b 171 100 104 118 140 107 b 515 304 275 93 513 86 b 296 504 517 436 435 499 b 121 628 125 511 121 493 b 117 994 121 671 135 1019 b 118 1025 118 1004 114 1015 b 196 1050 132 1060 168 1050 b 608 1049 222 1050 572 1054 "},"6":{"ha":854,"x_min":0,"x_max":0,"o":"m 275 565 b 446 589 331 579 388 589 b 739 360 644 589 739 499 b 432 0 739 149 604 0 b 135 528 179 0 135 300 l 142 547 b 583 1085 189 863 354 1085 b 621 979 647 1085 665 1000 b 542 983 603 986 558 983 b 249 554 415 983 264 724 m 638 310 b 435 492 638 458 574 492 b 239 390 353 492 238 449 b 638 310 249 49 575 13 "},"7":{"ha":854,"x_min":0,"x_max":0,"o":"m 558 485 b 457 75 544 485 511 307 b 371 0 440 -17 449 0 b 383 176 333 0 343 21 b 451 481 408 275 428 388 b 389 482 432 489 414 482 b 263 513 300 482 263 474 b 350 571 263 578 303 571 b 468 572 388 571 456 572 b 578 979 481 572 565 906 b 497 981 558 979 528 981 b 131 1019 154 983 131 969 b 210 1069 144 1074 117 1069 l 528 1069 b 706 1065 585 1069 653 1072 b 579 597 642 868 579 597 b 596 576 579 588 588 581 l 697 576 b 744 542 735 576 749 583 b 617 483 739 474 739 485 "},"8":{"ha":854,"x_min":0,"x_max":0,"o":"m 435 1083 b 696 818 611 1083 696 963 b 528 560 696 651 528 590 b 717 258 528 557 733 489 b 426 -7 706 88 606 -7 b 126 268 283 -7 126 128 b 319 551 126 413 203 490 b 121 828 207 610 121 651 b 435 1083 121 972 232 1083 m 417 613 b 603 854 517 683 603 700 b 433 996 603 939 506 996 b 214 819 331 996 214 942 b 417 613 214 679 297 679 m 421 497 b 217 276 358 501 217 413 b 433 83 217 176 313 83 b 421 497 694 83 681 478 "},"9":{"ha":854,"x_min":0,"x_max":0,"o":"m 692 767 b 725 504 710 681 721 593 b 432 1 735 282 728 1 b 254 32 375 1 311 24 l 169 79 l 165 144 b 193 175 171 153 182 175 b 199 172 196 175 197 174 l 260 138 b 417 92 297 126 349 101 b 611 639 624 64 663 376 b 363 507 536 554 446 507 b 135 750 244 507 135 626 b 392 1086 135 960 215 1086 b 529 1071 436 1086 485 1071 l 546 1072 l 601 1081 l 629 1078 b 692 765 663 1013 675 860 m 556 971 b 407 1000 554 972 410 1000 b 222 749 276 1000 222 899 b 349 596 222 685 283 596 b 551 721 443 596 508 643 b 558 946 581 774 574 832 "}," ":{"ha":854,"x_min":0,"x_max":0,"o":""},",":{"ha":378,"x_min":0,"x_max":0,"o":"m 263 107 b 282 85 275 107 282 97 b 150 -131 282 38 206 -131 b 119 -96 129 -131 113 -115 b 263 107 149 -14 208 107 "},"-":{"ha":1708,"x_min":0,"x_max":0,"o":"m 1086 513 b 989 451 1085 461 1101 451 l 647 449 b 558 513 582 449 556 433 b 629 554 560 564 586 554 b 1086 513 1106 558 1086 571 "},".":{"ha":443,"x_min":0,"x_max":0,"o":"m 201 121 b 275 67 235 121 275 111 b 228 13 275 42 250 21 b 201 121 139 13 142 121 "},"/":{"ha":1036,"x_min":0,"x_max":0,"o":"m 208 26 b 269 149 243 104 240 93 b 411 421 317 239 365 329 b 760 1090 560 714 693 972 b 851 1104 790 1144 807 1121 b 354 131 721 865 818 1057 b 264 -1 347 126 307 46 "},"A":{"ha":765,"x_min":0,"x_max":0,"o":"m 32 18 b 149 164 111 18 108 17 b 210 360 169 239 203 340 b 533 365 292 361 464 363 b 635 97 553 311 557 300 b 703 21 664 22 658 21 b 742 47 719 21 742 26 b 690 189 742 69 707 144 b 635 400 625 360 617 382 b 644 419 642 407 644 413 b 640 429 644 421 643 425 b 481 814 596 460 607 467 b 350 1082 389 1065 394 1082 b 164 565 303 1082 317 1101 b 32 18 10 25 4 18 m 271 454 b 276 658 208 453 217 425 b 354 888 326 853 328 888 b 397 801 369 888 389 826 b 453 454 518 439 524 454 "},"B":{"ha":632,"x_min":0,"x_max":0,"o":"m 39 1068 b 129 1088 49 1093 107 1088 b 531 832 299 1088 531 1050 b 385 582 531 733 467 651 b 610 308 499 511 610 490 b 258 0 610 125 428 0 b 26 32 101 0 26 -8 b 39 994 26 326 39 964 m 229 997 b 126 864 125 997 126 1018 b 165 601 126 631 108 601 b 443 854 322 601 443 722 b 229 997 443 938 342 997 m 521 326 b 246 511 521 440 361 511 b 118 418 131 511 126 526 b 118 85 117 399 114 203 b 218 81 144 82 192 81 b 521 326 354 81 521 125 "},"C":{"ha":835,"x_min":0,"x_max":0,"o":"m 458 1093 b 724 986 633 1096 761 1032 b 703 965 717 978 711 961 b 479 1011 658 985 564 1011 b 106 468 238 1011 106 693 b 425 92 106 189 257 92 b 774 215 675 92 706 215 b 814 194 789 215 814 214 b 439 8 814 111 574 8 b 21 506 88 8 21 235 b 458 1093 21 801 249 1090 "},"D":{"ha":917,"x_min":0,"x_max":0,"o":"m 318 1117 b 871 551 693 1117 871 900 b 208 11 871 196 524 11 b 38 35 111 11 42 1 b 49 150 33 64 50 90 b 36 1044 43 393 43 924 b 18 1078 32 1050 17 1069 b 318 1117 28 1135 250 1117 m 136 932 b 146 133 135 811 132 397 b 226 100 146 99 158 100 b 783 561 535 100 783 296 b 353 1029 783 815 643 1018 b 136 1026 281 1032 208 1029 "},"E":{"ha":622,"x_min":0,"x_max":0,"o":"m 22 6 b 19 757 21 254 19 507 b 22 1090 19 990 18 863 b 328 1094 51 1096 296 1094 b 601 1058 564 1096 601 1104 b 336 1014 601 1011 578 1018 l 115 1010 b 113 739 113 931 113 818 b 208 625 113 601 94 624 b 553 586 535 629 553 644 b 318 553 553 554 556 557 l 114 549 b 114 236 113 444 114 340 b 129 89 114 117 111 89 b 594 33 581 85 594 114 b 310 6 594 1 576 3 "},"F":{"ha":586,"x_min":0,"x_max":0,"o":"m 283 644 b 471 611 446 642 471 638 b 282 571 471 583 483 571 b 132 553 178 571 133 574 b 110 10 121 414 164 10 b 71 6 101 10 76 3 b 33 564 44 22 65 410 b 24 600 31 575 24 588 b 35 626 24 611 33 618 b 49 825 40 653 53 718 b 35 1065 40 1038 43 1035 b 296 1101 26 1097 125 1101 b 563 1058 522 1101 563 1114 b 347 1028 563 1026 549 1028 b 135 1007 199 1028 135 1029 b 129 647 135 965 129 657 "},"G":{"ha":883,"x_min":0,"x_max":0,"o":"m 476 1097 b 736 976 721 1089 757 1003 b 703 956 724 961 719 946 b 507 1019 654 985 579 1019 b 117 503 189 1019 117 657 b 436 93 117 324 181 93 b 772 538 697 93 772 331 b 615 563 772 578 685 563 b 529 607 533 563 529 571 b 689 639 529 643 597 639 b 865 549 817 639 865 656 b 439 13 865 300 764 13 b 26 493 131 13 26 257 b 476 1097 26 939 289 1104 "},"H":{"ha":765,"x_min":0,"x_max":0,"o":"m 706 1082 b 703 824 703 1060 704 993 b 707 590 701 629 697 632 b 711 526 713 569 721 547 b 699 274 694 490 699 403 b 669 13 699 54 704 13 b 615 249 611 13 614 22 b 500 503 617 538 640 503 b 169 492 457 503 232 494 b 150 224 142 490 153 489 b 106 14 147 18 150 14 b 61 143 53 14 60 38 l 65 388 b 50 535 67 507 50 500 b 67 586 50 557 67 569 l 67 921 b 106 1099 67 1086 75 1101 b 154 832 167 1093 154 1090 l 160 586 b 375 589 199 585 335 589 b 614 593 483 589 506 590 l 625 1082 "},"I":{"ha":157,"x_min":0,"x_max":0,"o":"m 74 1090 b 117 575 117 1090 117 1076 b 115 183 117 392 117 267 b 68 11 113 14 113 11 b 28 188 33 11 32 0 b 28 628 26 279 28 418 b 74 1090 28 1078 15 1090 "},"J":{"ha":479,"x_min":0,"x_max":0,"o":"m 399 1093 b 449 815 461 1093 449 1096 b 444 -69 449 579 464 53 b 231 -281 426 -186 350 -281 b 29 -119 150 -281 0 -157 b 53 -94 39 -107 42 -108 b 229 -200 81 -62 131 -200 b 361 -76 303 -200 344 -119 b 361 843 385 -15 361 721 b 399 1093 363 1088 363 1093 "},"K":{"ha":618,"x_min":0,"x_max":0,"o":"m 61 1090 b 101 985 97 1090 97 1086 b 104 689 104 906 104 772 b 489 1088 425 1074 453 1113 b 524 1053 504 1078 531 1071 b 167 606 510 1019 172 669 b 558 138 283 467 426 283 b 561 36 608 82 614 69 b 124 511 533 18 154 503 b 118 508 122 511 118 510 b 115 461 113 496 115 475 b 117 267 115 396 117 332 b 64 17 118 17 138 17 b 26 711 31 17 39 17 b 61 1090 19 1113 14 1090 "},"L":{"ha":582,"x_min":0,"x_max":0,"o":"m 26 19 b 24 743 25 264 24 224 b 61 1093 24 1093 22 1093 b 110 610 106 1093 108 1093 l 111 94 b 476 96 226 97 361 96 b 564 58 550 96 564 97 b 294 19 564 6 547 17 "},"M":{"ha":956,"x_min":0,"x_max":0,"o":"m 850 439 b 842 854 850 789 854 883 b 476 407 825 815 535 407 b 119 850 439 407 129 850 b 108 213 99 850 108 831 b 65 17 108 33 119 17 b 19 549 13 17 19 -21 b 47 1072 19 1060 6 1072 b 482 539 140 1014 450 539 b 896 1075 506 539 875 1065 b 935 661 949 1100 938 1061 l 935 24 l 850 24 "},"N":{"ha":761,"x_min":0,"x_max":0,"o":"m 694 18 b 114 892 678 18 519 271 b 114 444 113 769 114 715 b 71 22 114 13 114 22 b 19 683 17 22 22 -17 b 56 1089 18 1078 11 1089 b 647 261 103 1089 632 261 b 647 693 653 261 649 592 b 686 1086 643 1081 643 1086 b 740 340 743 1086 740 1110 b 694 18 740 75 743 18 "},"O":{"ha":886,"x_min":0,"x_max":0,"o":"m 447 1113 b 864 543 747 1113 864 794 b 450 10 864 289 733 26 b 24 521 233 -3 24 239 b 447 1113 24 817 160 1113 m 458 1017 b 118 521 196 1017 118 693 b 447 103 118 297 264 103 b 774 550 672 103 774 335 b 458 1017 774 747 669 1017 "},"P":{"ha":604,"x_min":0,"x_max":0,"o":"m 239 1099 b 581 849 413 1096 581 1024 b 138 507 581 546 411 529 b 129 131 121 506 125 471 b 90 11 131 18 133 11 b 40 201 36 11 40 -11 l 40 514 b 29 1060 40 1044 47 999 b 239 1099 19 1093 206 1099 m 214 1019 b 135 1013 201 1019 146 1021 b 128 810 126 946 128 878 b 204 593 128 585 111 593 b 499 839 379 593 499 661 b 214 1019 499 964 354 1019 "},"Q":{"ha":818,"x_min":0,"x_max":0,"o":"m 410 1094 b 800 535 682 1094 810 767 b 683 139 786 199 683 139 b 758 35 715 72 779 68 b 607 72 722 -21 693 15 b 399 7 586 86 550 7 b 19 563 149 7 19 293 b 410 1094 19 754 138 1094 m 414 1011 b 103 550 211 1011 103 692 b 397 83 103 389 190 83 b 542 151 444 83 557 124 b 506 272 526 179 472 251 b 615 206 538 293 594 201 b 714 556 663 215 714 413 b 414 1011 714 804 551 1011 "},"R":{"ha":643,"x_min":0,"x_max":0,"o":"m 19 1061 b 250 1106 0 1103 211 1106 b 589 794 453 1106 589 981 b 276 460 589 488 256 485 b 624 61 633 64 622 88 b 564 19 625 25 586 8 b 150 449 542 31 217 419 b 136 315 132 457 136 406 b 78 25 136 19 136 22 b 50 575 42 26 56 26 b 19 1061 46 1025 46 1006 m 503 789 b 201 1024 503 914 428 1024 b 129 861 115 1024 129 1039 b 139 556 129 760 138 657 b 235 549 171 551 203 549 b 503 789 385 549 503 657 "},"S":{"ha":707,"x_min":0,"x_max":0,"o":"m 411 1082 b 636 982 525 1082 636 1013 b 594 929 636 958 632 938 b 419 992 572 931 519 992 b 204 781 299 992 204 900 b 676 335 204 551 676 644 b 353 10 676 135 563 10 b 19 211 200 10 19 126 b 76 249 19 224 58 279 b 579 321 208 25 579 26 b 107 789 579 585 107 449 b 411 1082 107 953 271 1082 "},"T":{"ha":772,"x_min":0,"x_max":0,"o":"m 442 529 b 442 215 442 392 443 290 b 393 6 439 -24 440 6 b 351 213 364 6 354 -3 b 350 426 350 269 350 339 b 339 996 350 951 357 996 b 18 1044 13 996 18 971 b 374 1079 18 1086 46 1079 b 749 1038 736 1079 749 1099 b 442 996 749 993 761 997 "},"U":{"ha":849,"x_min":0,"x_max":0,"o":"m 776 1060 b 831 789 842 1060 831 1043 b 428 6 831 396 824 6 b 29 661 65 6 35 260 b 65 1051 24 1051 15 1051 b 121 643 126 1051 119 1042 b 425 94 122 314 153 94 b 736 744 736 94 736 413 b 776 1060 736 1049 732 1060 "},"V":{"ha":890,"x_min":0,"x_max":0,"o":"m 417 14 b 297 244 385 17 390 14 b 58 1053 -31 1053 -31 1053 b 314 475 97 1053 81 1058 b 419 225 325 449 404 225 b 751 992 443 225 664 782 b 824 1050 768 1032 764 1049 b 867 1019 840 1050 867 1046 b 417 14 428 0 458 11 "},"W":{"ha":1276,"x_min":0,"x_max":0,"o":"m 892 4 b 668 678 831 4 851 31 b 619 825 664 693 636 825 b 447 313 586 825 575 746 b 299 -1 357 7 368 -1 b 42 953 276 -1 276 -1 b 58 1060 19 1044 35 1057 b 253 496 129 1068 107 1064 b 319 265 258 472 307 265 b 326 267 322 265 325 265 b 610 1050 563 1056 550 1051 b 806 539 669 1049 661 1056 b 900 233 879 275 875 233 b 1071 731 932 233 1032 610 b 1213 1075 1178 1065 1181 1075 b 1126 600 1307 1075 1265 1039 b 906 4 963 81 958 8 "},"X":{"ha":715,"x_min":0,"x_max":0,"o":"m 88 1076 b 214 932 151 1076 135 1089 b 339 715 297 765 325 715 b 463 925 349 715 365 743 b 581 1075 543 1076 535 1076 b 500 811 643 1072 628 1050 b 400 594 450 718 400 625 b 546 306 400 568 406 554 b 650 18 686 57 740 18 b 468 261 599 18 615 13 b 328 488 333 489 339 488 b 207 264 319 488 274 389 b 64 18 85 32 92 18 b 140 335 -39 18 3 50 b 269 610 201 461 269 585 b 160 835 269 635 247 663 b 88 1076 54 1043 39 1076 "},"Y":{"ha":582,"x_min":0,"x_max":0,"o":"m 43 1065 b 197 819 79 1065 71 1075 b 311 619 293 625 293 619 b 411 854 322 619 367 743 b 539 1057 496 1063 499 1057 b 421 657 585 1057 565 1026 b 135 -4 164 -1 181 -4 b 178 253 79 -4 88 0 b 263 507 269 510 263 494 b 121 792 263 519 183 663 b 43 1065 3 1038 -19 1065 "},"Z":{"ha":1006,"x_min":0,"x_max":0,"o":"m 493 1064 b 938 1024 932 1064 938 1074 b 189 111 938 996 189 136 b 590 103 189 94 218 103 b 929 40 932 103 932 113 b 513 13 929 15 946 13 b 22 56 33 13 22 -11 b 776 960 22 99 776 926 b 768 975 776 965 774 972 b 571 975 704 978 633 975 b 85 1035 69 975 85 960 b 493 1064 85 1076 117 1064 "},"[":{"ha":19,"x_min":0,"x_max":0,"o":""},"]":{"ha":19,"x_min":0,"x_max":0,"o":""},"a":{"ha":675,"x_min":0,"x_max":0,"o":"m 324 579 b 517 385 458 579 517 514 b 622 92 517 292 485 92 b 701 64 649 92 701 101 b 603 7 701 18 638 7 b 489 61 563 7 506 19 b 463 97 485 72 478 97 b 228 4 438 97 360 4 b 28 247 101 4 28 121 b 324 579 28 404 135 579 m 426 303 b 336 503 431 399 442 503 b 107 256 213 503 107 397 b 194 83 107 204 138 94 b 369 133 257 71 322 90 b 426 303 432 192 426 219 "},"b":{"ha":660,"x_min":0,"x_max":0,"o":"m 72 1090 b 78 1096 72 1093 75 1096 b 158 1071 118 1096 158 1108 b 158 542 158 931 146 629 b 174 539 160 535 165 539 b 368 606 193 539 285 606 b 638 356 521 606 638 511 b 431 40 638 201 565 108 b 183 6 353 1 268 8 b 63 282 44 0 63 13 b 74 1092 63 551 68 822 m 551 357 b 353 522 551 501 438 536 b 150 146 214 500 150 439 b 242 81 150 93 188 81 b 474 167 293 81 406 107 b 551 357 549 233 551 290 "},"c":{"ha":536,"x_min":0,"x_max":0,"o":"m 353 604 b 458 540 400 604 458 604 b 422 510 458 519 440 510 b 354 532 407 510 415 532 b 135 278 232 532 135 411 b 299 86 135 188 203 86 b 501 189 419 86 457 189 b 517 167 514 189 517 176 b 297 13 517 104 415 13 b 58 281 135 13 58 169 b 353 604 58 489 213 604 "},"d":{"ha":675,"x_min":0,"x_max":0,"o":"m 508 1021 b 535 122 515 918 490 193 b 589 90 543 110 574 90 b 703 100 639 90 675 154 b 586 6 725 56 628 6 b 460 68 510 6 501 68 b 267 6 424 68 376 6 b 28 289 104 6 28 149 b 318 597 28 489 213 597 b 425 578 410 597 425 556 b 433 1001 425 722 433 717 b 508 1021 433 1067 506 1058 m 321 526 b 108 300 231 526 108 431 b 264 81 108 169 168 81 b 426 314 424 81 426 163 b 321 526 426 394 442 526 "},"e":{"ha":583,"x_min":0,"x_max":0,"o":"m 365 593 b 538 454 461 597 538 560 b 233 228 538 343 406 239 b 167 221 221 226 161 238 b 310 89 196 133 257 89 b 540 139 461 89 540 282 b 304 3 540 61 368 3 b 144 500 85 3 8 354 b 365 593 213 574 297 590 m 435 497 b 157 350 361 547 197 513 b 236 308 142 289 151 300 b 435 497 372 322 526 435 "},"f":{"ha":503,"x_min":0,"x_max":0,"o":"m 156 539 b 22 586 56 542 22 529 b 88 611 22 610 47 611 b 169 772 188 611 158 646 b 381 1040 188 976 256 1040 b 521 969 419 1040 521 1022 b 389 967 521 892 465 967 b 250 740 261 967 251 821 b 250 619 249 700 247 660 b 436 581 400 619 436 629 b 247 535 436 542 374 546 b 236 65 243 497 236 111 b 194 -137 235 -112 247 -133 b 156 99 136 -142 151 -19 "},"g":{"ha":597,"x_min":0,"x_max":0,"o":"m 332 608 b 508 558 440 610 472 558 b 574 496 553 558 576 560 b 561 106 567 368 561 233 b 315 -378 563 -174 544 -378 b 89 -242 178 -378 65 -285 b 306 -304 138 -151 139 -304 b 478 -3 474 -296 471 -129 b 460 79 479 18 481 67 b 267 1 444 78 369 1 b 40 290 106 1 40 147 b 332 608 40 469 153 606 m 336 532 b 125 272 188 532 125 418 b 264 81 125 176 158 81 b 476 331 410 81 476 203 b 336 532 476 440 485 532 "},"h":{"ha":707,"x_min":0,"x_max":0,"o":"m 68 521 b 113 1061 72 1024 60 1061 b 156 933 164 1061 156 1032 b 161 525 156 567 135 525 b 324 588 197 525 258 583 b 567 308 482 597 550 533 b 617 79 571 249 525 79 b 718 85 668 79 718 163 b 582 7 718 46 640 7 b 346 515 368 7 618 500 b 186 425 286 518 206 471 b 115 3 113 247 199 7 b 68 261 61 0 67 51 "},"i":{"ha":338,"x_min":0,"x_max":0,"o":"m 147 847 b 89 782 200 804 121 740 b 147 847 61 819 117 878 m 121 586 b 168 438 167 586 168 568 b 215 71 168 118 144 71 b 354 111 285 71 354 206 b 200 4 354 69 283 4 b 83 324 49 4 83 153 b 121 586 83 524 76 586 "},"j":{"ha":360,"x_min":0,"x_max":0,"o":"m 240 878 b 247 792 297 878 294 792 b 240 878 193 792 192 878 m 244 610 b 296 458 306 610 294 549 b 194 -365 304 -53 326 -365 b 33 -199 133 -365 1 -254 b 158 -267 65 -143 108 -267 b 217 318 217 -267 224 -207 b 244 610 214 543 204 610 "},"k":{"ha":611,"x_min":0,"x_max":0,"o":"m 101 1056 b 157 713 176 1056 157 1039 l 158 396 b 472 596 158 346 400 596 b 525 581 529 596 531 593 b 239 300 490 510 239 331 b 532 101 239 271 479 101 b 626 99 586 101 626 150 b 533 18 626 61 567 18 b 178 229 439 18 231 229 b 153 99 146 229 153 185 b 115 15 153 22 147 15 b 81 536 75 15 81 0 b 101 1056 81 957 74 1056 "},"l":{"ha":389,"x_min":0,"x_max":0,"o":"m 132 1053 b 171 539 181 1053 171 1007 b 200 78 171 468 143 132 b 392 65 278 8 392 161 b 240 -21 392 18 281 -21 b 85 518 65 -21 85 182 b 132 1053 85 1040 92 1053 "},"m":{"ha":1076,"x_min":0,"x_max":0,"o":"m 108 600 b 169 453 185 604 151 497 b 396 582 190 454 282 589 b 557 488 515 575 553 485 b 772 588 594 508 688 588 b 917 318 864 588 936 535 b 983 75 911 253 875 75 b 1088 97 1039 75 1088 178 b 976 10 1088 39 1025 10 b 772 504 690 10 946 504 b 631 431 713 504 663 471 b 521 14 518 288 604 14 b 482 351 443 14 490 42 b 357 492 479 475 429 525 b 111 17 64 357 199 17 b 58 108 50 17 56 40 b 108 600 76 546 60 597 "},"n":{"ha":675,"x_min":0,"x_max":0,"o":"m 50 586 b 100 607 54 597 88 611 b 138 497 154 592 110 497 b 367 594 165 497 257 594 b 604 94 664 594 444 94 b 676 133 647 94 667 133 b 693 103 688 133 693 113 b 596 8 693 67 632 8 b 383 518 360 8 538 518 b 165 393 288 518 199 457 b 136 172 135 333 138 239 b 89 19 135 57 135 19 b 51 294 40 19 53 86 b 53 524 51 371 53 447 b 56 592 53 540 51 576 "},"o":{"ha":660,"x_min":0,"x_max":0,"o":"m 333 600 b 626 308 499 600 626 478 b 340 1 626 157 493 1 b 29 281 204 1 26 131 b 333 600 32 478 128 600 m 322 517 b 111 290 169 519 108 393 b 321 82 114 188 221 82 b 539 325 432 82 553 193 b 322 517 529 413 465 514 "},"p":{"ha":707,"x_min":0,"x_max":0,"o":"m 83 203 b 93 581 83 235 83 569 b 122 599 100 589 110 599 b 167 514 168 599 167 585 b 178 426 167 503 161 426 b 199 447 188 426 196 442 b 440 599 235 531 350 599 b 669 360 549 599 669 467 b 360 8 669 204 518 8 b 174 74 272 8 207 74 b 165 17 164 74 167 22 b 161 -167 161 -44 161 -106 b 138 -378 161 -353 174 -378 b 83 203 56 -378 83 -354 m 435 507 b 183 217 300 507 183 338 b 363 88 183 158 304 88 b 589 343 478 88 589 235 b 435 507 589 440 513 507 "},"q":{"ha":625,"x_min":0,"x_max":0,"o":"m 500 -372 b 476 -144 469 -365 476 -310 b 472 106 476 -67 478 28 b 213 3 390 54 303 3 b 21 211 93 3 21 99 b 354 590 21 442 206 590 b 479 549 424 590 460 549 b 525 575 497 549 490 575 b 578 500 569 575 578 539 b 568 292 578 431 574 360 b 553 -62 557 174 553 56 b 510 -374 553 -331 578 -374 m 365 504 b 106 208 207 504 106 392 b 210 82 106 164 138 82 b 492 350 353 82 492 199 b 365 504 492 419 446 504 "},"r":{"ha":536,"x_min":0,"x_max":0,"o":"m 144 594 b 185 493 194 579 179 589 b 390 592 186 460 279 592 b 506 501 468 592 554 553 b 390 524 490 485 432 524 b 183 135 274 524 183 344 b 150 15 183 56 190 17 b 107 304 96 14 107 31 b 111 590 107 393 104 503 "},"s":{"ha":476,"x_min":0,"x_max":0,"o":"m 72 421 b 285 600 72 517 143 604 b 417 532 394 597 432 567 b 379 513 410 515 392 508 b 151 426 240 560 151 506 b 451 174 151 321 451 356 b 251 -10 451 54 353 -10 b 88 129 124 -10 -8 129 b 256 65 133 129 182 65 b 374 156 303 65 369 92 b 72 421 382 289 72 246 "},"t":{"ha":458,"x_min":0,"x_max":0,"o":"m 218 1039 b 238 822 247 1039 239 982 b 278 626 236 613 221 626 b 374 593 357 626 374 613 b 304 551 374 551 381 551 b 235 356 210 551 231 547 b 324 64 238 229 219 64 b 475 68 417 64 475 168 b 311 -11 475 26 344 -11 b 151 368 144 -11 151 194 b 103 536 151 543 167 536 b 42 571 56 536 42 546 b 122 613 42 626 69 607 b 158 832 167 617 154 608 b 218 1039 161 1013 153 1039 "},"u":{"ha":660,"x_min":0,"x_max":0,"o":"m 46 381 b 82 585 46 550 36 585 b 124 492 125 585 124 575 b 289 92 124 179 129 79 b 424 449 389 100 415 265 b 468 574 429 567 435 574 b 499 439 518 574 501 553 b 575 100 496 335 474 100 b 682 117 608 100 682 165 b 575 22 682 72 663 42 b 444 119 517 10 478 53 b 90 104 340 -40 169 -21 b 46 381 57 157 46 264 "},"v":{"ha":636,"x_min":0,"x_max":0,"o":"m 13 576 b 51 590 22 585 36 583 b 126 531 99 613 106 568 b 322 183 200 400 276 225 b 499 525 364 207 439 397 b 572 590 525 582 528 597 b 603 560 592 588 603 583 b 324 21 603 547 361 21 b 13 576 296 21 14 549 "},"w":{"ha":796,"x_min":0,"x_max":0,"o":"m 15 549 b 40 606 3 608 21 606 b 94 511 64 606 76 588 b 189 193 149 282 167 193 b 304 468 199 193 258 349 b 368 581 336 551 332 581 b 446 433 400 581 401 551 b 567 181 490 315 535 181 b 678 457 593 181 600 228 b 746 589 703 531 714 589 b 781 563 764 589 781 582 b 575 31 781 514 632 31 b 372 378 508 31 429 310 b 175 28 250 114 208 28 b 15 549 115 28 111 108 "},"x":{"ha":503,"x_min":0,"x_max":0,"o":"m 19 42 b 185 319 90 167 185 278 b 101 460 185 343 138 403 b 63 585 56 532 40 571 b 146 525 107 613 125 554 b 239 418 190 463 222 418 b 339 538 267 418 307 489 b 392 586 365 578 371 586 b 436 557 410 586 436 579 b 297 322 436 525 303 378 b 481 38 308 244 481 92 b 444 11 481 28 453 6 b 240 232 381 56 278 228 b 60 10 210 235 133 81 b 19 42 49 -1 13 29 "},"y":{"ha":636,"x_min":0,"x_max":0,"o":"m 285 40 b 144 310 285 83 256 108 b 46 597 4 564 -14 597 b 179 396 76 597 86 564 b 333 154 288 200 314 154 b 458 358 360 154 404 256 b 594 588 561 551 576 588 b 403 72 675 588 624 526 b 165 -356 235 -274 194 -356 b 199 -164 111 -356 111 -353 b 285 40 233 -89 285 -1 "},"z":{"ha":669,"x_min":0,"x_max":0,"o":"m 406 517 b 278 519 369 521 311 518 b 72 568 128 528 72 497 b 292 594 72 614 93 593 b 571 572 517 596 550 611 b 533 518 571 560 542 525 b 208 93 497 475 208 146 b 508 89 208 86 314 89 b 625 43 601 89 625 78 b 410 7 625 0 588 13 b 93 68 139 -1 93 -6 b 406 499 93 121 406 488 "},"{":{"ha":19,"x_min":0,"x_max":0,"o":""},"|":{"ha":19,"x_min":0,"x_max":0,"o":""},"}":{"ha":19,"x_min":0,"x_max":0,"o":""},"~":{"ha":19,"x_min":0,"x_max":0,"o":""},"¢":{"ha":19,"x_min":0,"x_max":0,"o":""},"£":{"ha":19,"x_min":0,"x_max":0,"o":""},"§":{"ha":1708,"x_min":0,"x_max":0,"o":"m 1756 -167 l -56 -167 l -56 1272 l 1756 1272 m 1706 -106 l 1706 1224 l -6 1224 l -6 -106 "},"¿":{"ha":19,"x_min":0,"x_max":0,"o":""},"À":{"ha":19,"x_min":0,"x_max":0,"o":""},"Á":{"ha":19,"x_min":0,"x_max":0,"o":""},"Â":{"ha":19,"x_min":0,"x_max":0,"o":""},"Ä":{"ha":758,"x_min":0,"x_max":0,"o":"m 138 1235 b 217 1193 197 1264 224 1210 b 138 1235 176 1106 90 1197 m 532 1244 b 538 1165 590 1244 603 1165 b 532 1244 478 1165 482 1244 m 32 18 b 149 164 111 18 108 17 b 210 360 169 239 203 340 b 533 365 292 361 464 363 b 635 97 553 311 557 300 b 703 21 664 22 658 21 b 742 47 719 21 742 26 b 690 189 742 69 707 144 b 635 400 625 360 617 382 b 644 419 642 407 644 413 b 640 429 644 421 643 425 b 481 814 596 460 607 467 b 350 1082 389 1065 394 1082 b 164 565 303 1082 317 1101 b 32 18 10 25 4 18 m 271 454 b 276 658 208 453 217 425 b 354 888 326 853 328 888 b 397 801 369 888 389 826 b 453 454 518 439 524 454 "},"Ç":{"ha":19,"x_min":0,"x_max":0,"o":""},"È":{"ha":19,"x_min":0,"x_max":0,"o":""},"É":{"ha":19,"x_min":0,"x_max":0,"o":""},"Ê":{"ha":19,"x_min":0,"x_max":0,"o":""},"Ë":{"ha":19,"x_min":0,"x_max":0,"o":""},"Î":{"ha":19,"x_min":0,"x_max":0,"o":""},"Ï":{"ha":19,"x_min":0,"x_max":0,"o":""},"Ñ":{"ha":19,"x_min":0,"x_max":0,"o":""},"Ó":{"ha":19,"x_min":0,"x_max":0,"o":""},"Ô":{"ha":19,"x_min":0,"x_max":0,"o":""},"Ö":{"ha":888,"x_min":0,"x_max":0,"o":"m 235 1300 b 278 1203 303 1300 317 1219 b 235 1300 183 1165 178 1300 m 621 1297 b 661 1211 689 1297 701 1226 b 621 1297 576 1179 563 1297 m 447 1113 b 864 543 747 1113 864 794 b 450 10 864 289 733 26 b 24 521 233 -3 24 239 b 447 1113 24 817 160 1113 m 458 1017 b 118 521 196 1017 118 693 b 447 103 118 297 264 103 b 774 550 672 103 774 335 b 458 1017 774 747 669 1017 "},"Ù":{"ha":19,"x_min":0,"x_max":0,"o":""},"Ú":{"ha":19,"x_min":0,"x_max":0,"o":""},"Û":{"ha":19,"x_min":0,"x_max":0,"o":""},"Ü":{"ha":835,"x_min":0,"x_max":0,"o":"m 546 1303 b 553 1206 624 1303 622 1206 b 546 1303 479 1206 510 1303 m 224 1301 b 229 1197 300 1301 293 1197 b 224 1301 163 1197 181 1301 m 776 1060 b 831 789 842 1060 831 1043 b 428 6 831 396 824 6 b 29 661 65 6 35 260 b 65 1051 24 1051 15 1051 b 121 643 126 1051 119 1042 b 425 94 122 314 153 94 b 736 744 736 94 736 413 b 776 1060 736 1049 732 1060 "},"ß":{"ha":711,"x_min":0,"x_max":0,"o":"m 94 -365 b 64 -228 53 -365 64 -362 b 111 917 64 -37 50 682 b 317 1078 143 1038 235 1078 b 532 832 453 1078 532 960 b 417 560 532 706 465 629 b 586 454 486 538 533 518 b 361 22 782 221 568 -58 b 229 146 222 76 199 124 b 450 101 258 167 357 61 b 550 365 556 147 618 240 b 293 515 489 476 293 486 b 446 836 293 553 446 693 b 303 996 446 976 349 996 b 157 139 119 996 164 597 l 157 -365 "},"à":{"ha":19,"x_min":0,"x_max":0,"o":""},"á":{"ha":19,"x_min":0,"x_max":0,"o":""},"â":{"ha":19,"x_min":0,"x_max":0,"o":""},"ä":{"ha":660,"x_min":0,"x_max":0,"o":"m 124 807 b 129 721 194 807 196 721 b 124 807 82 721 60 807 m 485 803 b 504 718 561 803 539 718 b 485 803 426 718 429 803 m 324 579 b 517 385 458 579 517 514 b 622 92 517 292 485 92 b 701 64 649 92 701 101 b 603 7 701 18 638 7 b 489 61 563 7 506 19 b 463 97 485 72 478 97 b 228 4 438 97 360 4 b 28 247 101 4 28 121 b 324 579 28 404 135 579 m 426 303 b 336 503 431 399 442 503 b 107 256 213 503 107 397 b 194 83 107 204 138 94 b 369 133 257 71 322 90 b 426 303 432 192 426 219 "},"ç":{"ha":19,"x_min":0,"x_max":0,"o":""},"è":{"ha":19,"x_min":0,"x_max":0,"o":""},"é":{"ha":19,"x_min":0,"x_max":0,"o":""},"ê":{"ha":19,"x_min":0,"x_max":0,"o":""},"ë":{"ha":19,"x_min":0,"x_max":0,"o":""},"î":{"ha":19,"x_min":0,"x_max":0,"o":""},"ï":{"ha":19,"x_min":0,"x_max":0,"o":""},"ó":{"ha":19,"x_min":0,"x_max":0,"o":""},"ô":{"ha":19,"x_min":0,"x_max":0,"o":""},"ö":{"ha":656,"x_min":0,"x_max":0,"o":"m 142 872 b 146 775 222 872 213 775 b 142 872 75 775 99 872 m 458 872 b 471 774 538 872 513 774 b 458 872 375 774 414 872 m 333 600 b 626 308 499 600 626 478 b 340 1 626 157 493 1 b 29 281 204 1 26 131 b 333 600 32 478 128 600 m 322 517 b 111 290 169 519 108 393 b 321 82 114 188 221 82 b 539 325 432 82 553 193 b 322 517 529 413 465 514 "},"ù":{"ha":19,"x_min":0,"x_max":0,"o":""},"ú":{"ha":19,"x_min":0,"x_max":0,"o":""},"û":{"ha":19,"x_min":0,"x_max":0,"o":""},"ü":{"ha":651,"x_min":0,"x_max":0,"o":"m 111 843 b 121 743 172 843 183 743 b 111 843 40 743 39 843 m 435 843 b 446 747 503 843 513 747 b 435 843 364 747 392 843 m 46 381 b 82 585 46 550 36 585 b 124 492 125 585 124 575 b 289 92 124 179 129 79 b 424 449 389 100 415 265 b 468 574 429 567 435 574 b 499 439 518 574 501 553 b 575 100 496 335 474 100 b 682 117 608 100 682 165 b 575 22 682 72 663 42 b 444 119 517 10 478 53 b 90 104 340 -40 169 -21 b 46 381 57 157 46 264 "},"ę":{"ha":19,"x_min":0,"x_max":0,"o":""},"“":{"ha":19,"x_min":0,"x_max":0,"o":""},"„":{"ha":19,"x_min":0,"x_max":0,"o":""},"€":{"ha":854,"x_min":0,"x_max":0,"o":"m 43 690 b 149 718 43 713 36 731 b 539 1100 183 925 297 1100 b 772 1015 660 1100 707 1061 b 768 968 781 1010 778 989 l 760 951 b 554 1001 744 921 671 999 b 272 722 421 1004 308 900 l 617 715 b 629 672 629 715 629 711 b 596 633 629 644 606 631 l 265 633 b 267 460 264 617 265 474 l 599 460 l 613 419 l 613 401 b 600 363 613 374 610 363 l 275 363 b 549 113 297 226 389 113 b 815 185 663 113 793 233 l 824 167 b 524 7 843 124 710 8 b 158 363 301 6 193 144 l 39 363 b 26 401 29 363 26 374 l 26 419 b 143 454 26 465 26 454 b 144 633 129 624 139 547 b 43 672 42 633 43 632 "},"!":{"ha":496,"x_min":0,"x_max":0,"o":"m 297 514 b 258 228 297 243 297 228 b 197 483 199 225 200 225 b 250 1082 192 1076 183 1082 b 297 514 307 1082 297 1060 m 246 121 b 311 65 279 121 311 110 b 261 13 311 40 303 21 b 246 121 200 13 186 121 "},"+":{"ha":1708,"x_min":0,"x_max":0,"o":"m 1208 556 b 1158 485 1206 508 1215 485 l 917 485 b 901 235 894 485 901 485 b 844 124 901 142 911 124 b 799 171 828 124 799 119 b 800 488 801 421 800 447 b 567 488 782 490 768 488 b 483 517 499 488 483 488 b 522 581 479 544 471 581 b 799 583 725 581 740 581 b 846 906 799 897 788 906 b 896 849 896 906 897 910 b 894 604 894 768 894 682 b 956 579 894 572 929 579 b 1113 581 965 579 990 581 b 1208 556 1149 581 1208 585 "},"=":{"ha":1708,"x_min":0,"x_max":0,"o":"m 1117 735 b 1157 693 1149 735 1157 731 b 993 642 1156 642 1139 642 b 506 685 482 642 506 625 b 533 735 506 733 517 728 l 788 735 m 847 346 b 508 400 500 346 508 336 b 767 436 508 450 556 436 b 1153 397 1139 436 1153 446 b 847 346 1153 336 1168 346 "},"?":{"ha":729,"x_min":0,"x_max":0,"o":"m 290 1093 b 554 868 428 1093 554 1008 b 219 433 554 622 219 600 b 407 299 219 319 315 299 b 563 342 461 299 535 342 b 585 294 574 342 585 308 b 408 201 585 250 489 201 b 115 451 265 201 115 272 b 464 881 115 651 464 667 b 296 1014 464 975 353 1014 b 139 946 213 1014 197 946 b 97 990 101 946 97 968 b 290 1093 97 1061 236 1093 m 340 131 b 357 -12 447 131 436 -11 b 340 131 276 -14 256 131 "},"$":{"ha":854,"x_min":0,"x_max":0,"o":"m 617 499 b 421 301 617 389 531 301 b 224 499 313 301 224 390 b 421 694 224 608 311 694 b 617 499 532 694 617 610 "},"\"":{"ha":517,"x_min":0,"x_max":0,"o":"m 354 1121 b 411 1154 368 1136 389 1154 b 431 1132 424 1154 431 1144 b 363 919 431 1085 426 919 b 328 1028 322 919 328 1000 b 354 1118 328 1060 332 1094 m 117 1118 b 175 1153 131 1133 153 1153 b 194 1131 188 1153 194 1143 b 126 928 194 1083 190 928 b 92 1033 88 928 92 1004 b 117 1117 92 1063 97 1094 "},"(":{"ha":710,"x_min":0,"x_max":0,"o":"m 586 -121 b 554 -128 576 -125 564 -126 l 504 -136 b 189 696 200 107 189 406 b 540 1289 189 1019 439 1322 l 556 1283 b 567 1260 560 1276 564 1268 b 283 600 567 1199 283 1150 b 583 -92 283 275 424 29 b 582 -114 582 -99 582 -107 l 586 -119 "},")":{"ha":675,"x_min":0,"x_max":0,"o":"m 128 -131 b 131 -124 126 -129 129 -125 b 129 -101 131 -117 131 -108 b 157 -75 139 -93 144 -81 b 181 -42 163 -60 168 -53 b 382 535 307 133 382 268 b 119 1247 382 1143 119 1193 b 129 1283 119 1263 121 1269 l 157 1303 b 481 649 289 1274 481 1013 b 213 -143 481 240 399 0 b 158 -137 203 -150 140 -137 "},"«":{"ha":517,"x_min":0,"x_max":0,"o":"m 354 1121 b 411 1154 368 1136 389 1154 b 431 1132 424 1154 431 1144 b 363 919 431 1085 426 919 b 328 1028 322 919 328 1000 b 354 1118 328 1060 332 1094 m 117 1118 b 175 1153 131 1133 153 1153 b 194 1131 188 1153 194 1143 b 126 928 194 1083 190 928 b 92 1033 88 928 92 1004 b 117 1117 92 1063 97 1094 "},"»":{"ha":517,"x_min":0,"x_max":0,"o":"m 361 82 b 419 115 375 97 397 115 b 439 93 432 115 439 106 b 371 -119 439 46 435 -119 b 336 -10 331 -119 336 -37 b 361 79 336 21 340 56 m 125 79 b 183 114 139 94 161 114 b 203 92 196 114 203 104 b 133 -111 203 46 197 -111 b 99 -7 94 -111 99 -36 b 125 78 99 22 104 54 "},"#":{"ha":854,"x_min":0,"x_max":0,"o":"m 842 -125 l -58 -125 l -58 1243 l 842 1243 m 800 -64 l 800 1204 l -8 1204 l -8 -64 "},"¨":{"ha":517,"x_min":0,"x_max":0,"o":"m 354 1121 b 411 1154 368 1136 389 1154 b 431 1132 424 1154 431 1144 b 363 919 431 1085 426 919 b 328 1028 322 919 328 1000 b 354 1118 328 1060 332 1094 m 117 1118 b 175 1153 131 1133 153 1153 b 194 1131 188 1153 194 1143 b 126 928 194 1083 190 928 b 92 1033 88 928 92 1004 b 117 1117 92 1063 97 1094 "},"´":{"ha":338,"x_min":0,"x_max":0,"o":"m 117 1118 b 175 1153 131 1133 153 1153 b 194 1131 188 1153 194 1143 b 126 928 194 1083 190 928 b 92 1033 88 928 92 1004 b 117 1117 92 1063 97 1094 "},"`":{"ha":338,"x_min":0,"x_max":0,"o":"m 156 1117 b 181 1033 175 1094 181 1063 b 146 928 181 1004 185 928 b 78 1131 82 928 78 1083 b 97 1153 78 1143 85 1153 b 156 1118 119 1153 142 1133 "},"@":{"ha":1518,"x_min":0,"x_max":0,"o":"m 675 -6 b 519 72 608 6 553 39 b 464 261 486 117 464 183 b 797 617 464 492 654 617 b 1042 517 940 610 1021 597 b 1032 306 1044 393 1040 419 b 1015 171 1024 183 1038 226 b 1085 106 1015 157 1049 129 b 1224 415 1172 117 1224 215 b 800 810 1174 690 964 810 b 308 169 525 810 308 503 b 1031 -183 308 -169 622 -356 b 1164 -83 1108 -117 1153 -83 b 1231 -117 1208 -83 1231 -94 b 719 -339 1231 -196 1072 -318 b 253 -61 497 -339 342 -250 b 208 194 219 39 208 128 b 231 361 208 250 219 306 b 375 694 253 483 297 594 b 797 894 464 806 640 894 b 1319 383 1043 894 1319 678 b 1075 17 1319 164 1233 17 b 964 83 1042 17 997 39 b 853 28 942 83 908 61 l 731 -6 m 940 431 b 778 529 940 532 897 522 b 564 289 700 519 579 422 b 696 86 564 108 632 86 b 908 206 829 86 864 117 l 919 239 "},"–":{"ha":854,"x_min":0,"x_max":0,"o":"m 58 500 b 72 535 58 507 68 528 b 153 567 69 567 69 567 b 544 568 283 567 414 568 b 774 568 599 568 731 569 b 779 482 790 536 779 528 b 483 451 794 449 747 451 b 65 471 110 451 65 446 l 60 481 "},"—":{"ha":1072,"x_min":0,"x_max":0,"o":"m 83 471 b 75 500 78 481 75 489 b 89 535 79 511 83 524 b 171 567 89 563 108 567 b 710 569 351 567 531 569 b 964 568 772 569 921 574 b 971 544 969 557 971 556 b 985 513 976 535 978 522 b 969 482 981 503 976 490 b 485 458 963 465 975 465 b 133 461 390 458 228 461 b 99 458 122 461 110 460 "},"”":{"ha":517,"x_min":0,"x_max":0,"o":"m 354 1121 b 411 1154 368 1136 389 1154 b 431 1132 424 1154 431 1144 b 363 919 431 1085 426 919 b 328 1028 322 919 328 1000 b 354 1118 328 1060 332 1094 m 117 1118 b 175 1153 131 1133 153 1153 b 194 1131 188 1153 194 1143 b 126 928 194 1083 190 928 b 92 1033 88 928 92 1004 b 117 1117 92 1063 97 1094 "},"‚":{"ha":378,"x_min":0,"x_max":0,"o":"m 204 74 b 263 107 218 89 239 107 b 282 85 275 107 282 97 b 150 -131 282 38 206 -131 b 119 -96 129 -131 119 -115 b 204 71 119 -51 175 39 "},"·":{"ha":443,"x_min":0,"x_max":0,"o":"m 171 579 b 269 524 204 579 269 579 b 222 471 269 499 244 479 b 171 579 132 472 121 579 "},":":{"ha":482,"x_min":0,"x_max":0,"o":"m 171 608 b 222 640 171 632 199 640 b 317 578 315 640 317 628 b 263 515 317 557 283 515 b 171 608 174 515 171 574 m 171 221 b 219 265 171 244 194 265 b 317 200 307 265 317 251 b 263 140 317 178 286 140 b 171 221 228 140 171 135 "},";":{"ha":417,"x_min":0,"x_max":0,"o":"m 189 492 b 251 557 189 543 225 557 b 322 500 278 557 322 556 b 250 425 322 469 306 425 b 189 492 206 425 189 465 m 213 169 b 271 203 226 185 249 203 b 290 181 283 203 290 193 b 157 -129 290 138 193 -129 b 125 -40 128 -129 125 -60 b 213 167 125 7 181 132 "},"<":{"ha":1708,"x_min":0,"x_max":0,"o":"m 1169 818 b 1140 832 1165 831 1153 838 b 539 583 568 608 539 600 b 564 479 535 481 547 488 l 1078 238 b 1136 226 1086 233 1131 218 l 1168 265 b 1138 311 1178 278 1164 299 l 724 510 b 725 564 654 543 675 544 l 1153 732 b 1185 765 1164 736 1188 754 "},">":{"ha":1708,"x_min":0,"x_max":0,"o":"m 1144 603 b 1179 557 1165 594 1176 581 l 1183 521 b 1151 471 1185 507 1174 481 l 636 250 b 579 265 613 240 594 244 l 574 274 b 593 349 556 297 567 338 l 996 510 b 1031 551 1031 524 1065 538 l 571 732 b 544 786 546 742 538 760 l 549 799 b 601 824 557 825 575 835 "},"\\":{"ha":1121,"x_min":0,"x_max":0,"o":"m 208 1138 b 250 1168 208 1163 228 1168 b 301 1165 263 1168 289 1168 b 346 1099 324 1146 328 1136 b 876 60 371 1057 876 26 b 800 -1 876 26 831 24 b 228 1114 763 17 229 1108 "},"•":{"ha":854,"x_min":0,"x_max":0,"o":"m 621 499 b 425 301 621 389 535 301 b 228 499 317 301 228 390 b 425 694 228 608 315 694 b 621 499 536 694 621 610 "},"*":{"ha":1708,"x_min":0,"x_max":0,"o":"m 1014 500 b 860 344 1014 411 949 344 b 708 500 800 344 708 410 b 717 564 708 519 714 546 b 860 654 729 631 826 654 b 1014 500 940 654 1014 581 "},"'":{"ha":338,"x_min":0,"x_max":0,"o":"m 117 1118 b 175 1153 131 1133 153 1153 b 200 1125 188 1153 200 1138 b 126 928 200 1078 190 928 b 92 1033 88 928 92 1004 b 117 1117 92 1063 97 1094 "},"%":{"ha":1464,"x_min":0,"x_max":0,"o":"m 615 646 b 350 843 446 590 343 658 b 544 988 350 903 339 988 b 683 868 597 989 679 931 b 615 646 699 706 622 651 m 1039 925 b 924 768 1036 915 931 774 b 793 578 922 758 810 599 b 790 569 789 581 790 571 l 786 563 l 789 553 b 697 429 757 513 726 471 b 679 379 694 414 678 389 b 532 179 656 343 554 179 b 453 89 510 143 501 104 l 444 82 b 438 89 442 82 438 86 b 410 96 429 93 419 94 l 410 93 l 403 110 b 413 151 401 128 407 135 b 439 179 422 160 431 171 b 465 207 451 185 461 194 b 636 453 507 249 608 400 b 665 503 643 467 651 496 l 674 517 l 675 531 b 697 546 681 538 689 543 l 699 569 b 790 701 733 610 754 663 b 793 740 790 714 790 728 b 840 807 814 767 828 771 b 846 814 843 808 846 811 b 933 929 881 849 910 886 b 999 985 954 943 986 964 l 1006 985 b 1058 961 1032 985 1043 986 l 1058 943 m 625 838 b 536 935 619 933 550 931 b 393 810 449 953 393 876 b 544 678 393 718 451 651 b 618 767 579 692 606 699 m 1149 249 b 1132 239 1144 243 1139 240 b 1119 200 1132 225 1119 214 b 1122 190 1119 197 1121 193 b 1099 169 1115 183 1108 172 b 1072 157 1092 163 1083 158 b 957 121 1044 121 1000 121 b 910 138 940 121 918 119 l 892 135 l 886 128 l 882 131 b 886 133 882 132 886 132 l 883 138 b 858 143 875 138 867 140 l 850 156 l 850 161 l 846 167 b 828 176 839 168 831 169 l 836 185 l 824 189 l 822 194 b 803 213 819 196 803 210 l 808 228 b 790 239 801 228 794 233 l 790 306 b 813 364 790 326 801 347 l 807 369 l 807 371 b 896 467 831 403 843 467 b 897 471 896 468 896 471 b 946 475 917 471 924 469 l 953 472 b 994 489 971 488 974 489 b 1040 458 1015 489 1024 465 l 1049 468 b 1054 463 1051 469 1057 465 l 1063 458 b 1082 454 1068 460 1076 456 l 1094 443 l 1096 439 l 1107 431 l 1151 274 m 1082 269 b 1092 290 1086 275 1092 283 b 1017 399 1092 326 1078 363 l 1008 411 b 960 424 994 415 975 424 b 950 421 957 424 953 422 l 947 417 l 933 417 b 831 263 856 358 843 372 b 838 235 835 254 836 244 l 846 225 l 849 217 l 854 213 l 854 208 l 863 199 l 869 197 b 878 185 874 194 876 189 b 893 181 883 185 889 183 l 910 181 l 910 176 l 919 179 b 939 171 926 176 932 171 b 1057 225 997 171 1013 206 b 1072 250 1061 235 1067 242 l 1081 254 "},"&":{"ha":974,"x_min":0,"x_max":0,"o":"m 738 57 l 642 165 b 569 88 624 132 592 117 b 283 -4 447 21 432 -4 b 260 6 275 -4 267 3 b 128 250 151 54 128 140 b 329 567 128 383 217 503 b 193 844 258 661 193 718 b 410 1072 193 975 276 1072 b 576 1007 453 1072 558 1051 b 636 829 632 956 636 900 b 449 558 636 703 543 628 l 633 319 l 638 332 b 707 481 674 374 693 428 l 767 457 b 692 246 747 378 736 315 l 828 74 m 569 835 b 424 989 569 918 508 989 b 268 849 349 989 268 928 b 392 622 268 743 331 697 b 564 835 472 675 564 722 m 383 496 b 301 443 360 479 321 464 b 214 250 264 404 214 304 b 338 82 214 182 260 82 b 588 240 446 82 528 160 "},"⁄":{"ha":1036,"x_min":0,"x_max":0,"o":"m 836 1114 b 725 911 832 1096 739 928 b 550 546 726 900 553 551 b 264 -1 374 178 278 0 l 258 1 l 253 8 b 232 15 247 13 239 15 b 200 26 218 15 189 4 b 261 149 238 104 232 93 b 597 840 292 207 592 831 b 779 1165 621 882 768 1153 b 814 1168 790 1168 803 1168 b 846 1163 825 1168 836 1168 b 856 1135 853 1154 856 1146 "},"_":{"ha":854,"x_min":0,"x_max":0,"o":"m -14 -89 b -7 -32 -15 -76 -12 -43 b 654 -28 6 -22 579 -28 b 947 -29 654 -28 943 -28 b 964 -97 971 -29 979 -81 b 643 -114 958 -122 894 -111 b -11 -112 433 -117 422 -115 "},"²":{"ha":860,"x_min":0,"x_max":0,"o":"m 564 479 b 461 472 533 472 492 472 b 339 472 419 472 381 474 b 331 476 338 472 332 475 b 324 485 329 478 324 482 b 486 786 324 517 486 685 b 432 843 486 814 456 843 b 314 783 386 843 325 783 b 306 807 310 783 306 803 b 374 867 306 839 350 851 b 447 879 394 879 422 879 b 532 797 479 879 532 838 b 531 757 532 786 531 769 b 503 696 531 754 506 700 b 389 521 469 624 438 583 b 383 513 386 518 385 515 b 531 511 389 507 517 511 l 539 511 b 572 506 550 514 563 507 "},"³":{"ha":896,"x_min":0,"x_max":0,"o":"m 592 515 b 465 419 593 469 511 417 b 389 415 439 419 415 415 b 319 443 343 415 328 419 b 317 453 318 446 317 450 b 325 469 317 457 318 469 b 346 458 328 469 343 460 b 404 454 353 454 394 454 b 474 463 415 454 469 457 b 540 544 513 481 558 486 b 368 631 518 624 368 589 b 407 656 368 643 388 642 b 510 774 500 672 542 735 b 388 801 460 835 401 801 b 361 793 369 801 378 799 b 325 815 349 793 325 803 b 414 849 325 835 396 849 b 539 822 457 849 488 858 b 569 764 550 815 569 776 b 565 700 569 754 567 710 b 481 640 535 672 525 654 b 592 581 536 635 565 625 "},"¹":{"ha":814,"x_min":0,"x_max":0,"o":"m 447 625 b 449 575 446 608 449 592 l 449 526 b 453 500 449 518 453 508 l 453 499 b 425 488 442 486 439 493 b 418 485 424 486 421 485 b 417 486 417 485 417 486 b 407 508 411 493 407 500 b 411 721 407 532 414 700 b 413 789 411 743 413 767 b 415 810 413 796 414 803 l 411 818 b 324 753 388 815 335 765 b 308 747 318 753 314 749 l 307 746 l 306 746 l 282 760 l 281 764 b 326 801 281 775 318 794 b 428 875 338 811 418 875 b 456 850 438 875 464 863 b 454 826 456 843 456 835 b 456 803 456 821 456 810 b 451 729 456 779 449 753 l 453 710 l 450 631 "},"º":{"ha":660,"x_min":0,"x_max":0,"o":"m 360 844 b 458 869 389 863 425 869 b 643 675 558 869 643 788 b 463 472 643 575 554 472 b 268 646 381 472 268 546 b 360 844 269 731 288 806 m 508 806 b 451 811 489 806 469 810 b 318 661 360 814 318 729 b 451 525 318 593 390 525 b 590 686 518 525 590 617 b 508 806 590 735 547 806 "},"×":{"ha":854,"x_min":0,"x_max":0,"o":"m 193 331 b 349 533 156 361 349 510 b 221 696 349 546 189 682 b 250 722 225 697 243 718 b 400 592 283 747 383 606 b 556 717 419 576 521 736 b 594 689 572 707 586 701 b 471 519 611 667 471 535 b 635 321 471 494 654 358 b 607 286 632 314 613 293 b 408 457 590 265 425 457 b 224 307 379 457 244 279 b 193 331 214 319 203 322 "},"≠":{"ha":1292,"x_min":0,"x_max":0,"o":"m 571 735 b 760 1090 651 890 718 1017 b 851 1104 790 1144 807 1121 b 657 735 764 943 779 978 l 788 735 b 890 735 838 735 879 735 l 1117 735 b 1157 693 1149 735 1157 731 b 993 642 1156 642 1139 642 b 610 639 797 642 679 639 l 507 436 b 540 436 518 436 529 436 l 550 436 b 696 436 579 439 625 438 b 844 436 763 438 810 438 b 1153 397 1140 438 1153 442 b 854 346 1153 336 1168 346 b 729 346 825 344 785 346 b 599 346 672 346 629 344 l 461 346 b 354 131 429 282 394 210 b 264 -1 347 126 307 46 l 208 26 b 269 149 243 104 240 93 b 372 346 304 214 339 279 b 282 400 278 349 282 358 b 419 438 282 439 310 439 l 524 640 b 279 685 264 638 279 636 b 307 735 279 733 290 728 l 561 735 "}}}
